<svg xmlns="http://www.w3.org/2000/svg" viewBox="0 0 100 100" fill="none">
  <circle cx="50" cy="50" r="22" fill="#FFD93D"/>
  <!-- Rays -->
  <g stroke="#FFD93D" stroke-width="4" stroke-linecap="round">
    <line x1="50" y1="5" x2="50" y2="20"/>
    <line x1="50" y1="80" x2="50" y2="95"/>
    <line x1="5" y1="50" x2="20" y2="50"/>
    <line x1="80" y1="50" x2="95" y2="50"/>
    <line x1="18" y1="18" x2="28" y2="28"/>
    <line x1="72" y1="72" x2="82" y2="82"/>
    <line x1="82" y1="18" x2="72" y2="28"/>
    <line x1="28" y1="72" x2="18" y2="82"/>
  </g>
  <!-- Petals -->
  <g fill="#FFE066" opacity="0.6">
    <ellipse cx="50" cy="18" rx="8" ry="14" transform="rotate(0,50,50)"/>
    <ellipse cx="50" cy="18" rx="8" ry="14" transform="rotate(45,50,50)"/>
    <ellipse cx="50" cy="18" rx="8" ry="14" transform="rotate(90,50,50)"/>
    <ellipse cx="50" cy="18" rx="8" ry="14" transform="rotate(135,50,50)"/>
    <ellipse cx="50" cy="18" rx="8" ry="14" transform="rotate(180,50,50)"/>
    <ellipse cx="50" cy="18" rx="8" ry="14" transform="rotate(225,50,50)"/>
    <ellipse cx="50" cy="18" rx="8" ry="14" transform="rotate(270,50,50)"/>
    <ellipse cx="50" cy="18" rx="8" ry="14" transform="rotate(315,50,50)"/>
  </g>
  <circle cx="50" cy="50" r="18" fill="#FFD93D"/>
</svg>